<svg width="1728" height="221" viewBox="0 0 1728 221" fill="none" xmlns="http://www.w3.org/2000/svg">
<mask id="path-1-outside-1_5_137" maskUnits="userSpaceOnUse" x="-259" y="-4" width="2258" height="507" fill="black">
<rect fill="white" x="-259" y="-4" width="2258" height="507"/>
<path d="M-30.8014 316.907H-159.245L-184.934 425.371C-186.837 434.885 -187.788 442.497 -187.788 448.205C-187.788 455.817 -186.837 463.428 -184.934 471.04C-181.128 478.651 -172.565 482.457 -159.245 482.457H-150.682V499.583H-256.291V482.457H-247.728C-240.117 482.457 -233.457 480.554 -227.748 476.748C-222.04 471.04 -218.234 462.477 -216.331 451.06L-105.013 14.3511L-62.1987 0.0796132L46.2648 451.06C50.0706 462.477 54.8277 471.04 60.5363 476.748C66.2449 480.554 72.905 482.457 80.5165 482.457H89.0794V499.583H-33.6557V482.457H-22.2385C-10.8213 482.457 -4.16122 480.554 -2.25835 476.748C-0.355482 471.04 0.595953 466.283 0.595953 462.477C0.595953 454.865 -0.355482 448.205 -2.25835 442.497L-30.8014 316.907ZM-90.7418 62.8743H-93.5961L-153.536 299.782H-33.6557L-90.7418 62.8743ZM64.0757 459.623C64.0757 467.234 65.9785 472.943 69.7843 476.748C75.4929 480.554 82.1529 482.457 89.7644 482.457H166.831C193.471 482.457 216.305 474.845 235.334 459.623C254.363 442.497 268.634 416.808 278.148 382.556L292.42 388.265L266.731 499.583H-27.2621V482.457H-7.28192C2.23242 482.457 8.89246 480.554 12.6982 476.748C16.5039 472.943 18.4068 467.234 18.4068 459.623V51.4571C18.4068 43.8456 16.5039 38.137 12.6982 34.3313C8.89246 30.5255 2.23242 28.6227 -7.28192 28.6227H-24.4077V11.4968H109.745V28.6227H89.7644C82.1529 28.6227 75.4929 30.5255 69.7843 34.3313C65.9785 38.137 64.0757 43.8456 64.0757 51.4571V459.623ZM184.641 28.6227V11.4968H464.363L495.761 108.543L481.489 114.252C466.266 85.7087 450.092 64.7772 432.966 51.4571C415.84 36.2341 396.811 28.6227 375.88 28.6227H295.959C288.348 28.6227 281.688 30.5255 275.979 34.3313C272.173 38.137 270.271 43.8456 270.271 51.4571V228.424H353.045C372.074 228.424 385.394 223.667 393.006 214.152C402.52 204.638 407.277 190.367 407.277 171.338V154.212H424.403V322.616H407.277V311.199C407.277 290.267 402.52 274.093 393.006 262.676C385.394 251.258 372.074 245.55 353.045 245.55H270.271V459.623C270.271 467.234 272.173 472.943 275.979 476.748C281.688 480.554 288.348 482.457 295.959 482.457H370.171C398.714 482.457 422.5 474.845 441.529 459.623C462.46 442.497 478.635 416.808 490.052 382.556L504.323 388.265L472.926 499.583H181.787V482.457H198.913C208.427 482.457 215.087 480.554 218.893 476.748C222.699 472.943 224.602 467.234 224.602 459.623V51.4571C224.602 43.8456 222.699 38.137 218.893 34.3313C215.087 30.5255 208.427 28.6227 198.913 28.6227H184.641ZM573.512 236.987L673.412 451.06C679.121 462.477 684.83 471.04 690.538 476.748C698.15 480.554 705.761 482.457 713.373 482.457H721.936V499.583H599.201V482.457H610.618C620.132 482.457 625.841 481.506 627.744 479.603C629.646 475.797 630.598 471.991 630.598 468.185C630.598 464.38 629.646 460.574 627.744 456.768L550.677 288.364L485.028 425.371C481.223 434.885 478.368 442.497 476.466 448.205C472.66 455.817 470.757 460.574 470.757 462.477C470.757 470.088 472.66 475.797 476.466 479.603C482.174 481.506 488.834 482.457 496.446 482.457H502.154V499.583H393.691V482.457H405.108C414.622 482.457 423.185 479.603 430.797 473.894C438.408 468.185 444.117 461.525 447.922 453.914L539.26 259.821L442.214 48.6028C440.311 42.8942 436.505 38.137 430.797 34.3313C426.991 30.5255 421.282 28.6227 413.671 28.6227H402.254V11.4968H519.28V28.6227H510.717C499.3 28.6227 492.64 31.477 490.737 37.1856C488.834 42.8942 489.786 51.4571 493.591 62.8743L562.095 214.152L630.598 68.5829C636.307 55.2628 638.209 45.7485 636.307 40.0399C634.404 32.4284 627.744 28.6227 616.326 28.6227H599.201V11.4968H710.518V28.6227H693.393C689.587 28.6227 684.83 30.5255 679.121 34.3313C673.412 38.137 667.704 43.8456 661.995 51.4571L573.512 236.987ZM816.813 316.907H688.369L662.68 425.371C660.777 434.885 659.826 442.497 659.826 448.205C659.826 455.817 660.777 463.428 662.68 471.04C666.486 478.651 675.049 482.457 688.369 482.457H696.932V499.583H591.323V482.457H599.886C607.497 482.457 614.157 480.554 619.866 476.748C625.574 471.04 629.38 462.477 631.283 451.06L742.601 14.3511L785.415 0.0796132L893.879 451.06C897.685 462.477 902.442 471.04 908.15 476.748C913.859 480.554 920.519 482.457 928.131 482.457H936.693V499.583H813.958V482.457H825.376C836.793 482.457 843.453 480.554 845.356 476.748C847.259 471.04 848.21 466.283 848.21 462.477C848.21 454.865 847.259 448.205 845.356 442.497L816.813 316.907ZM756.872 62.8743H754.018L694.078 299.782H813.958L756.872 62.8743ZM1085.8 385.411H1091.51V51.4571C1091.51 43.8456 1089.61 38.137 1085.8 34.3313C1082 30.5255 1075.34 28.6227 1065.82 28.6227H1042.99V11.4968H1157.16V28.6227H1134.33C1126.71 28.6227 1120.05 30.5255 1114.35 34.3313C1110.54 38.137 1108.64 43.8456 1108.64 51.4571V499.583H1091.51L874.584 74.2915H868.875V459.623C868.875 467.234 870.778 472.943 874.584 476.748C880.292 480.554 886.952 482.457 894.564 482.457H917.398V499.583H803.226V482.457H826.061C835.575 482.457 842.235 480.554 846.041 476.748C849.846 472.943 851.749 467.234 851.749 459.623V51.4571C851.749 43.8456 849.846 38.137 846.041 34.3313C842.235 30.5255 835.575 28.6227 826.061 28.6227H808.935V11.4968H891.71L1085.8 385.411ZM1294.85 251.258C1294.85 169.435 1282.48 112.349 1257.75 80.0001C1233.01 45.7485 1198.76 28.6227 1154.99 28.6227C1141.67 28.6227 1131.2 30.5255 1123.59 34.3313C1117.88 38.137 1115.03 43.8456 1115.03 51.4571V459.623C1115.03 467.234 1117.88 472.943 1123.59 476.748C1129.3 480.554 1136.91 482.457 1146.43 482.457C1188.29 482.457 1223.49 467.234 1252.04 436.788C1280.58 404.439 1294.85 342.596 1294.85 251.258ZM1069.36 51.4571C1069.36 43.8456 1067.46 38.137 1063.65 34.3313C1059.85 30.5255 1053.19 28.6227 1043.67 28.6227H1026.55V11.4968H1154.99C1213.98 11.4968 1260.6 30.5255 1294.85 68.5829C1331.01 106.64 1349.08 165.629 1349.08 245.55C1349.08 333.082 1331.96 397.779 1297.71 439.642C1263.45 479.603 1213.03 499.583 1146.43 499.583H1023.69V482.457H1043.67C1053.19 482.457 1059.85 480.554 1063.65 476.748C1067.46 472.943 1069.36 467.234 1069.36 459.623V51.4571ZM1543.86 125.669C1543.86 163.726 1533.4 193.221 1512.46 214.152C1491.53 235.084 1467.75 247.453 1441.11 251.258L1526.74 462.477C1530.54 470.088 1534.35 475.797 1538.15 479.603C1543.86 481.506 1549.57 482.457 1555.28 482.457H1572.4V499.583H1492.48L1398.29 254.113H1332.64V459.623C1332.64 467.234 1334.55 472.943 1338.35 476.748C1344.06 480.554 1350.72 482.457 1358.33 482.457H1375.46V499.583H1244.16V482.457H1261.28C1270.8 482.457 1277.46 480.554 1281.26 476.748C1285.07 472.943 1286.97 467.234 1286.97 459.623V51.4571C1286.97 43.8456 1285.07 38.137 1281.26 34.3313C1277.46 30.5255 1270.8 28.6227 1261.28 28.6227H1244.16V11.4968H1406.85C1450.62 11.4968 1483.92 21.0112 1506.75 40.0399C1531.49 59.0686 1543.86 87.6116 1543.86 125.669ZM1332.64 236.987H1395.44C1423.98 236.987 1447.77 228.424 1466.79 211.298C1485.82 194.172 1495.34 167.532 1495.34 131.378C1495.34 99.0288 1486.77 74.2915 1469.65 57.1657C1452.52 38.137 1425.88 28.6227 1389.73 28.6227H1358.33C1350.72 28.6227 1344.06 30.5255 1338.35 34.3313C1334.55 38.137 1332.64 43.8456 1332.64 51.4571V236.987ZM1501.73 28.6227V11.4968H1730.08V28.6227H1664.43C1656.82 28.6227 1650.16 30.5255 1644.45 34.3313C1640.64 38.137 1638.74 43.8456 1638.74 51.4571V459.623C1638.74 467.234 1640.64 472.943 1644.45 476.748C1650.16 480.554 1656.82 482.457 1664.43 482.457H1730.08V499.583H1501.73V482.457H1567.38C1576.89 482.457 1583.55 480.554 1587.36 476.748C1591.17 472.943 1593.07 467.234 1593.07 459.623V51.4571C1593.07 43.8456 1591.17 38.137 1587.36 34.3313C1583.55 30.5255 1576.89 28.6227 1567.38 28.6227H1501.73ZM1876.33 316.907H1747.89L1722.2 425.371C1720.3 434.885 1719.34 442.497 1719.34 448.205C1719.34 455.817 1720.3 463.428 1722.2 471.04C1726 478.651 1734.57 482.457 1747.89 482.457H1756.45V499.583H1650.84V482.457H1659.4C1667.01 482.457 1673.67 480.554 1679.38 476.748C1685.09 471.04 1688.9 462.477 1690.8 451.06L1802.12 14.3511L1844.93 0.0796132L1953.4 451.06C1957.2 462.477 1961.96 471.04 1967.67 476.748C1973.38 480.554 1980.04 482.457 1987.65 482.457H1996.21V499.583H1873.48V482.457H1884.89C1896.31 482.457 1902.97 480.554 1904.87 476.748C1906.78 471.04 1907.73 466.283 1907.73 462.477C1907.73 454.865 1906.78 448.205 1904.87 442.497L1876.33 316.907ZM1816.39 62.8743H1813.54L1753.6 299.782H1873.48L1816.39 62.8743Z"/>
</mask>
<path d="M-30.8014 316.907H-159.245L-184.934 425.371C-186.837 434.885 -187.788 442.497 -187.788 448.205C-187.788 455.817 -186.837 463.428 -184.934 471.04C-181.128 478.651 -172.565 482.457 -159.245 482.457H-150.682V499.583H-256.291V482.457H-247.728C-240.117 482.457 -233.457 480.554 -227.748 476.748C-222.04 471.04 -218.234 462.477 -216.331 451.06L-105.013 14.3511L-62.1987 0.0796132L46.2648 451.06C50.0706 462.477 54.8277 471.04 60.5363 476.748C66.2449 480.554 72.905 482.457 80.5165 482.457H89.0794V499.583H-33.6557V482.457H-22.2385C-10.8213 482.457 -4.16122 480.554 -2.25835 476.748C-0.355482 471.04 0.595953 466.283 0.595953 462.477C0.595953 454.865 -0.355482 448.205 -2.25835 442.497L-30.8014 316.907ZM-90.7418 62.8743H-93.5961L-153.536 299.782H-33.6557L-90.7418 62.8743ZM64.0757 459.623C64.0757 467.234 65.9785 472.943 69.7843 476.748C75.4929 480.554 82.1529 482.457 89.7644 482.457H166.831C193.471 482.457 216.305 474.845 235.334 459.623C254.363 442.497 268.634 416.808 278.148 382.556L292.42 388.265L266.731 499.583H-27.2621V482.457H-7.28192C2.23242 482.457 8.89246 480.554 12.6982 476.748C16.5039 472.943 18.4068 467.234 18.4068 459.623V51.4571C18.4068 43.8456 16.5039 38.137 12.6982 34.3313C8.89246 30.5255 2.23242 28.6227 -7.28192 28.6227H-24.4077V11.4968H109.745V28.6227H89.7644C82.1529 28.6227 75.4929 30.5255 69.7843 34.3313C65.9785 38.137 64.0757 43.8456 64.0757 51.4571V459.623ZM184.641 28.6227V11.4968H464.363L495.761 108.543L481.489 114.252C466.266 85.7087 450.092 64.7772 432.966 51.4571C415.84 36.2341 396.811 28.6227 375.88 28.6227H295.959C288.348 28.6227 281.688 30.5255 275.979 34.3313C272.173 38.137 270.271 43.8456 270.271 51.4571V228.424H353.045C372.074 228.424 385.394 223.667 393.006 214.152C402.52 204.638 407.277 190.367 407.277 171.338V154.212H424.403V322.616H407.277V311.199C407.277 290.267 402.52 274.093 393.006 262.676C385.394 251.258 372.074 245.55 353.045 245.55H270.271V459.623C270.271 467.234 272.173 472.943 275.979 476.748C281.688 480.554 288.348 482.457 295.959 482.457H370.171C398.714 482.457 422.5 474.845 441.529 459.623C462.46 442.497 478.635 416.808 490.052 382.556L504.323 388.265L472.926 499.583H181.787V482.457H198.913C208.427 482.457 215.087 480.554 218.893 476.748C222.699 472.943 224.602 467.234 224.602 459.623V51.4571C224.602 43.8456 222.699 38.137 218.893 34.3313C215.087 30.5255 208.427 28.6227 198.913 28.6227H184.641ZM573.512 236.987L673.412 451.06C679.121 462.477 684.83 471.04 690.538 476.748C698.15 480.554 705.761 482.457 713.373 482.457H721.936V499.583H599.201V482.457H610.618C620.132 482.457 625.841 481.506 627.744 479.603C629.646 475.797 630.598 471.991 630.598 468.185C630.598 464.38 629.646 460.574 627.744 456.768L550.677 288.364L485.028 425.371C481.223 434.885 478.368 442.497 476.466 448.205C472.66 455.817 470.757 460.574 470.757 462.477C470.757 470.088 472.66 475.797 476.466 479.603C482.174 481.506 488.834 482.457 496.446 482.457H502.154V499.583H393.691V482.457H405.108C414.622 482.457 423.185 479.603 430.797 473.894C438.408 468.185 444.117 461.525 447.922 453.914L539.26 259.821L442.214 48.6028C440.311 42.8942 436.505 38.137 430.797 34.3313C426.991 30.5255 421.282 28.6227 413.671 28.6227H402.254V11.4968H519.28V28.6227H510.717C499.3 28.6227 492.64 31.477 490.737 37.1856C488.834 42.8942 489.786 51.4571 493.591 62.8743L562.095 214.152L630.598 68.5829C636.307 55.2628 638.209 45.7485 636.307 40.0399C634.404 32.4284 627.744 28.6227 616.326 28.6227H599.201V11.4968H710.518V28.6227H693.393C689.587 28.6227 684.83 30.5255 679.121 34.3313C673.412 38.137 667.704 43.8456 661.995 51.4571L573.512 236.987ZM816.813 316.907H688.369L662.68 425.371C660.777 434.885 659.826 442.497 659.826 448.205C659.826 455.817 660.777 463.428 662.68 471.04C666.486 478.651 675.049 482.457 688.369 482.457H696.932V499.583H591.323V482.457H599.886C607.497 482.457 614.157 480.554 619.866 476.748C625.574 471.04 629.38 462.477 631.283 451.06L742.601 14.3511L785.415 0.0796132L893.879 451.06C897.685 462.477 902.442 471.04 908.15 476.748C913.859 480.554 920.519 482.457 928.131 482.457H936.693V499.583H813.958V482.457H825.376C836.793 482.457 843.453 480.554 845.356 476.748C847.259 471.04 848.21 466.283 848.21 462.477C848.21 454.865 847.259 448.205 845.356 442.497L816.813 316.907ZM756.872 62.8743H754.018L694.078 299.782H813.958L756.872 62.8743ZM1085.8 385.411H1091.51V51.4571C1091.51 43.8456 1089.61 38.137 1085.8 34.3313C1082 30.5255 1075.34 28.6227 1065.82 28.6227H1042.99V11.4968H1157.16V28.6227H1134.33C1126.71 28.6227 1120.05 30.5255 1114.35 34.3313C1110.54 38.137 1108.64 43.8456 1108.64 51.4571V499.583H1091.51L874.584 74.2915H868.875V459.623C868.875 467.234 870.778 472.943 874.584 476.748C880.292 480.554 886.952 482.457 894.564 482.457H917.398V499.583H803.226V482.457H826.061C835.575 482.457 842.235 480.554 846.041 476.748C849.846 472.943 851.749 467.234 851.749 459.623V51.4571C851.749 43.8456 849.846 38.137 846.041 34.3313C842.235 30.5255 835.575 28.6227 826.061 28.6227H808.935V11.4968H891.71L1085.8 385.411ZM1294.85 251.258C1294.85 169.435 1282.48 112.349 1257.75 80.0001C1233.01 45.7485 1198.76 28.6227 1154.99 28.6227C1141.67 28.6227 1131.2 30.5255 1123.59 34.3313C1117.88 38.137 1115.03 43.8456 1115.03 51.4571V459.623C1115.03 467.234 1117.88 472.943 1123.59 476.748C1129.3 480.554 1136.91 482.457 1146.43 482.457C1188.29 482.457 1223.49 467.234 1252.04 436.788C1280.58 404.439 1294.85 342.596 1294.85 251.258ZM1069.36 51.4571C1069.36 43.8456 1067.46 38.137 1063.65 34.3313C1059.85 30.5255 1053.19 28.6227 1043.67 28.6227H1026.55V11.4968H1154.99C1213.98 11.4968 1260.6 30.5255 1294.85 68.5829C1331.01 106.64 1349.08 165.629 1349.08 245.55C1349.08 333.082 1331.96 397.779 1297.71 439.642C1263.45 479.603 1213.03 499.583 1146.43 499.583H1023.69V482.457H1043.67C1053.19 482.457 1059.85 480.554 1063.65 476.748C1067.46 472.943 1069.36 467.234 1069.36 459.623V51.4571ZM1543.86 125.669C1543.86 163.726 1533.4 193.221 1512.46 214.152C1491.53 235.084 1467.75 247.453 1441.11 251.258L1526.74 462.477C1530.54 470.088 1534.35 475.797 1538.15 479.603C1543.86 481.506 1549.57 482.457 1555.28 482.457H1572.4V499.583H1492.48L1398.29 254.113H1332.64V459.623C1332.64 467.234 1334.55 472.943 1338.35 476.748C1344.06 480.554 1350.72 482.457 1358.33 482.457H1375.46V499.583H1244.16V482.457H1261.28C1270.8 482.457 1277.46 480.554 1281.26 476.748C1285.07 472.943 1286.97 467.234 1286.97 459.623V51.4571C1286.97 43.8456 1285.07 38.137 1281.26 34.3313C1277.46 30.5255 1270.8 28.6227 1261.28 28.6227H1244.16V11.4968H1406.85C1450.62 11.4968 1483.92 21.0112 1506.75 40.0399C1531.49 59.0686 1543.86 87.6116 1543.86 125.669ZM1332.64 236.987H1395.44C1423.98 236.987 1447.77 228.424 1466.79 211.298C1485.82 194.172 1495.34 167.532 1495.34 131.378C1495.34 99.0288 1486.77 74.2915 1469.65 57.1657C1452.52 38.137 1425.88 28.6227 1389.73 28.6227H1358.33C1350.72 28.6227 1344.06 30.5255 1338.35 34.3313C1334.55 38.137 1332.64 43.8456 1332.64 51.4571V236.987ZM1501.73 28.6227V11.4968H1730.08V28.6227H1664.43C1656.82 28.6227 1650.16 30.5255 1644.45 34.3313C1640.64 38.137 1638.74 43.8456 1638.74 51.4571V459.623C1638.74 467.234 1640.64 472.943 1644.45 476.748C1650.16 480.554 1656.82 482.457 1664.43 482.457H1730.08V499.583H1501.73V482.457H1567.38C1576.89 482.457 1583.55 480.554 1587.36 476.748C1591.17 472.943 1593.07 467.234 1593.07 459.623V51.4571C1593.07 43.8456 1591.17 38.137 1587.36 34.3313C1583.55 30.5255 1576.89 28.6227 1567.38 28.6227H1501.73ZM1876.33 316.907H1747.89L1722.2 425.371C1720.3 434.885 1719.34 442.497 1719.34 448.205C1719.34 455.817 1720.3 463.428 1722.2 471.04C1726 478.651 1734.57 482.457 1747.89 482.457H1756.45V499.583H1650.84V482.457H1659.4C1667.01 482.457 1673.67 480.554 1679.38 476.748C1685.09 471.04 1688.9 462.477 1690.8 451.06L1802.12 14.3511L1844.93 0.0796132L1953.4 451.06C1957.2 462.477 1961.96 471.04 1967.67 476.748C1973.38 480.554 1980.04 482.457 1987.65 482.457H1996.21V499.583H1873.48V482.457H1884.89C1896.31 482.457 1902.97 480.554 1904.87 476.748C1906.78 471.04 1907.73 466.283 1907.73 462.477C1907.73 454.865 1906.78 448.205 1904.87 442.497L1876.33 316.907ZM1816.39 62.8743H1813.54L1753.6 299.782H1873.48L1816.39 62.8743Z" fill="#FED7AA"/>
<path d="M-30.8014 316.907L-28.2104 316.318L-28.6804 314.25H-30.8014V316.907ZM-159.245 316.907V314.25H-161.346L-161.831 316.295L-159.245 316.907ZM-184.934 425.371L-187.519 424.758L-187.53 424.804L-187.539 424.85L-184.934 425.371ZM-184.934 471.04L-187.512 471.684L-187.441 471.967L-187.31 472.228L-184.934 471.04ZM-150.682 482.457H-148.025V479.8H-150.682V482.457ZM-150.682 499.583V502.24H-148.025V499.583H-150.682ZM-256.291 499.583H-258.948V502.24H-256.291V499.583ZM-256.291 482.457V479.8H-258.948V482.457H-256.291ZM-227.748 476.748L-226.274 478.959L-226.056 478.813L-225.87 478.627L-227.748 476.748ZM-216.331 451.06L-218.906 450.403L-218.934 450.512L-218.952 450.623L-216.331 451.06ZM-105.013 14.3511L-105.854 11.8304L-107.23 12.2891L-107.588 13.6948L-105.013 14.3511ZM-62.1987 0.0796204L-59.6153 -0.541718L-60.2923 -3.35669L-63.039 -2.44113L-62.1987 0.0796204ZM46.2648 451.06L43.6814 451.681L43.708 451.792L43.7441 451.9L46.2648 451.06ZM60.5363 476.748L58.6575 478.627L58.8435 478.813L59.0624 478.959L60.5363 476.748ZM89.0794 482.457H91.7365V479.8H89.0794V482.457ZM89.0794 499.583V502.24H91.7365V499.583H89.0794ZM-33.6557 499.583H-36.3128V502.24H-33.6557V499.583ZM-33.6557 482.457V479.8H-36.3128V482.457H-33.6557ZM-2.25836 476.748L0.118225 477.937L0.202667 477.768L0.26239 477.589L-2.25836 476.748ZM-2.25836 442.497L-4.84937 443.086L-4.8204 443.213L-4.77908 443.337L-2.25836 442.497ZM-90.7418 62.8743L-88.1586 62.2518L-88.6489 60.2172H-90.7418V62.8743ZM-93.5961 62.8743V60.2172H-95.6646L-96.172 62.2225L-93.5961 62.8743ZM-153.536 299.782L-156.112 299.13L-156.95 302.439H-153.536V299.782ZM-33.6557 299.782V302.439H-30.2823L-31.0725 299.159L-33.6557 299.782ZM-30.8014 314.25H-159.245V319.564H-30.8014V314.25ZM-161.831 316.295L-187.519 424.758L-182.348 425.983L-156.659 317.52L-161.831 316.295ZM-187.539 424.85C-189.456 434.435 -190.445 442.242 -190.445 448.205H-185.131C-185.131 442.751 -184.217 435.336 -182.328 425.892L-187.539 424.85ZM-190.445 448.205C-190.445 456.041 -189.465 463.868 -187.512 471.684L-182.356 470.395C-184.208 462.988 -185.131 455.593 -185.131 448.205H-190.445ZM-187.31 472.228C-182.831 481.187 -172.948 485.114 -159.245 485.114V479.8C-172.182 479.8 -179.425 476.115 -182.557 469.851L-187.31 472.228ZM-159.245 485.114H-150.682V479.8H-159.245V485.114ZM-153.339 482.457V499.583H-148.025V482.457H-153.339ZM-150.682 496.926H-256.291V502.24H-150.682V496.926ZM-253.634 499.583V482.457H-258.948V499.583H-253.634ZM-256.291 485.114H-247.728V479.8H-256.291V485.114ZM-247.728 485.114C-239.652 485.114 -232.467 483.087 -226.274 478.959L-229.222 474.538C-234.447 478.021 -240.582 479.8 -247.728 479.8V485.114ZM-225.87 478.627C-219.633 472.39 -215.666 463.232 -213.71 451.496L-218.952 450.623C-220.802 461.722 -224.447 469.689 -229.627 474.87L-225.87 478.627ZM-213.756 451.716L-102.439 15.0074L-107.588 13.6948L-218.906 450.403L-213.756 451.716ZM-104.173 16.8719L-61.3585 2.60036L-63.039 -2.44113L-105.854 11.8304L-104.173 16.8719ZM-64.7822 0.700943L43.6814 451.681L48.8482 450.438L-59.6153 -0.541718L-64.7822 0.700943ZM43.7441 451.9C47.6215 463.532 52.5494 472.519 58.6575 478.627L62.4152 474.87C57.1061 469.56 52.5196 461.422 48.7856 450.219L43.7441 451.9ZM59.0624 478.959C65.2546 483.087 72.44 485.114 80.5164 485.114V479.8C73.3699 479.8 67.2353 478.021 62.0102 474.538L59.0624 478.959ZM80.5164 485.114H89.0794V479.8H80.5164V485.114ZM86.4223 482.457V499.583H91.7365V482.457H86.4223ZM89.0794 496.926H-33.6557V502.24H89.0794V496.926ZM-30.9986 499.583V482.457H-36.3128V499.583H-30.9986ZM-33.6557 485.114H-22.2385V479.8H-33.6557V485.114ZM-22.2385 485.114C-16.4206 485.114 -11.6214 484.633 -7.95058 483.585C-4.33975 482.553 -1.32565 480.824 0.118225 477.937L-4.63492 475.56C-5.0939 476.478 -6.36127 477.604 -9.41049 478.475C-12.3997 479.329 -16.6392 479.8 -22.2385 479.8V485.114ZM0.26239 477.589C2.20947 471.747 3.25305 466.684 3.25305 462.477H-2.06116C-2.06116 465.881 -2.92044 470.332 -4.77908 475.908L0.26239 477.589ZM3.25305 462.477C3.25305 454.652 2.27585 447.697 0.26239 441.656L-4.77908 443.337C-2.98682 448.714 -2.06116 455.079 -2.06116 462.477H3.25305ZM0.332672 441.908L-28.2104 316.318L-33.3924 317.496L-4.84937 443.086L0.332672 441.908ZM-90.7418 60.2172H-93.5961V65.5314H-90.7418V60.2172ZM-96.172 62.2225L-156.112 299.13L-150.961 300.433L-91.0201 63.526L-96.172 62.2225ZM-153.536 302.439H-33.6557V297.124H-153.536V302.439ZM-31.0725 299.159L-88.1586 62.2518L-93.3249 63.4967L-36.2389 300.404L-31.0725 299.159ZM69.7843 476.748L67.9054 478.627L68.0915 478.813L68.3104 478.959L69.7843 476.748ZM235.334 459.623L236.994 461.697L237.054 461.649L237.111 461.598L235.334 459.623ZM278.148 382.556L279.135 380.089L276.382 378.988L275.588 381.845L278.148 382.556ZM292.42 388.265L295.009 388.862L295.521 386.644L293.407 385.798L292.42 388.265ZM266.731 499.583V502.24H268.845L269.32 500.18L266.731 499.583ZM-27.2621 499.583H-29.9191V502.24H-27.2621V499.583ZM-27.2621 482.457V479.8H-29.9191V482.457H-27.2621ZM-24.4077 28.6227H-27.0648V31.2798H-24.4077V28.6227ZM-24.4077 11.4968V8.83974H-27.0648V11.4968H-24.4077ZM109.745 11.4968H112.402V8.83974H109.745V11.4968ZM109.745 28.6227V31.2798H112.402V28.6227H109.745ZM69.7843 34.3313L68.3104 32.1204L68.0915 32.2664L67.9054 32.4524L69.7843 34.3313ZM61.4186 459.623C61.4186 467.644 63.4256 474.147 67.9054 478.627L71.6631 474.87C68.5314 471.738 66.7328 466.824 66.7328 459.623H61.4186ZM68.3104 478.959C74.5026 483.087 81.688 485.114 89.7644 485.114V479.8C82.6179 479.8 76.4832 478.021 71.2582 474.538L68.3104 478.959ZM89.7644 485.114H166.831V479.8H89.7644V485.114ZM166.831 485.114C194.014 485.114 217.449 477.333 236.994 461.697L233.674 457.548C215.161 472.358 192.927 479.8 166.831 479.8V485.114ZM237.111 461.598C256.635 444.026 271.109 417.824 280.709 383.267L275.588 381.845C266.159 415.792 252.09 440.967 233.556 457.648L237.111 461.598ZM277.162 385.023L291.433 390.732L293.407 385.798L279.135 380.089L277.162 385.023ZM289.831 387.667L264.142 498.985L269.32 500.18L295.009 388.862L289.831 387.667ZM266.731 496.926H-27.2621V502.24H266.731V496.926ZM-24.6049 499.583V482.457H-29.9191V499.583H-24.6049ZM-27.2621 485.114H-7.28192V479.8H-27.2621V485.114ZM-7.28192 485.114C2.43887 485.114 10.0063 483.198 14.5771 478.627L10.8194 474.87C7.77866 477.91 2.02597 479.8 -7.28192 479.8V485.114ZM14.5771 478.627C19.0569 474.147 21.0639 467.644 21.0639 459.623H15.7497C15.7497 466.824 13.951 471.738 10.8194 474.87L14.5771 478.627ZM21.0639 459.623V51.4571H15.7497V459.623H21.0639ZM21.0639 51.4571C21.0639 43.436 19.0569 36.9322 14.5771 32.4524L10.8194 36.2101C13.951 39.3418 15.7497 44.2552 15.7497 51.4571H21.0639ZM14.5771 32.4524C10.0063 27.8816 2.43887 25.9656 -7.28192 25.9656V31.2798C2.02597 31.2798 7.77866 33.1694 10.8194 36.2101L14.5771 32.4524ZM-7.28192 25.9656H-24.4077V31.2798H-7.28192V25.9656ZM-21.7507 28.6227V11.4968H-27.0648V28.6227H-21.7507ZM-24.4077 14.1539H109.745V8.83974H-24.4077V14.1539ZM107.087 11.4968V28.6227H112.402V11.4968H107.087ZM109.745 25.9656H89.7644V31.2798H109.745V25.9656ZM89.7644 25.9656C81.688 25.9656 74.5026 27.9923 68.3104 32.1204L71.2582 36.5421C76.4832 33.0587 82.6179 31.2798 89.7644 31.2798V25.9656ZM67.9054 32.4524C63.4256 36.9322 61.4186 43.436 61.4186 51.4571H66.7328C66.7328 44.2552 68.5314 39.3418 71.6631 36.2101L67.9054 32.4524ZM61.4186 51.4571V459.623H66.7328V51.4571H61.4186ZM184.641 28.6227H181.984V31.2798H184.641V28.6227ZM184.641 11.4968V8.83974H181.984V11.4968H184.641ZM464.363 11.4968L466.891 10.6789L466.296 8.83974H464.363V11.4968ZM495.761 108.543L496.747 111.01L499.053 110.088L498.289 107.725L495.761 108.543ZM481.489 114.252L479.145 115.502L480.265 117.603L482.476 116.719L481.489 114.252ZM432.966 51.4571L431.201 53.443L431.266 53.5009L431.335 53.5545L432.966 51.4571ZM275.979 34.3313L274.505 32.1204L274.286 32.2664L274.1 32.4524L275.979 34.3313ZM270.271 228.424H267.613V231.081H270.271V228.424ZM393.006 214.152L391.127 212.274L391.023 212.378L390.931 212.493L393.006 214.152ZM407.277 154.212V151.555H404.62V154.212H407.277ZM424.403 154.212H427.06V151.555H424.403V154.212ZM424.403 322.616V325.273H427.06V322.616H424.403ZM407.277 322.616H404.62V325.273H407.277V322.616ZM393.006 262.676L390.795 264.149L390.874 264.268L390.964 264.377L393.006 262.676ZM270.271 245.55V242.893H267.613V245.55H270.271ZM275.979 476.748L274.1 478.627L274.286 478.813L274.505 478.959L275.979 476.748ZM441.529 459.623L443.189 461.697L443.2 461.688L443.211 461.679L441.529 459.623ZM490.052 382.556L491.039 380.089L488.422 379.043L487.531 381.716L490.052 382.556ZM504.323 388.265L506.881 388.986L507.53 386.686L505.31 385.798L504.323 388.265ZM472.926 499.583V502.24H474.938L475.483 500.304L472.926 499.583ZM181.787 499.583H179.13V502.24H181.787V499.583ZM181.787 482.457V479.8H179.13V482.457H181.787ZM187.299 28.6227V11.4968H181.984V28.6227H187.299ZM184.641 14.1539H464.363V8.83974H184.641V14.1539ZM461.835 12.3147L493.232 109.361L498.289 107.725L466.891 10.6789L461.835 12.3147ZM494.774 106.076L480.502 111.785L482.476 116.719L496.747 111.01L494.774 106.076ZM483.834 113.001C468.514 84.2764 452.126 62.993 434.597 49.3597L431.335 53.5545C448.058 66.5613 464.019 87.1411 479.145 115.502L483.834 113.001ZM434.731 49.4711C417.169 33.8601 397.526 25.9656 375.88 25.9656V31.2798C396.097 31.2798 414.511 38.6082 431.201 53.443L434.731 49.4711ZM375.88 25.9656H295.959V31.2798H375.88V25.9656ZM295.959 25.9656C287.883 25.9656 280.698 27.9923 274.505 32.1204L277.453 36.5421C282.678 33.0587 288.813 31.2798 295.959 31.2798V25.9656ZM274.1 32.4524C269.621 36.9322 267.613 43.436 267.613 51.4571H272.928C272.928 44.2552 274.726 39.3418 277.858 36.2101L274.1 32.4524ZM267.613 51.4571V228.424H272.928V51.4571H267.613ZM270.271 231.081H353.045V225.767H270.271V231.081ZM353.045 231.081C372.424 231.081 386.736 226.243 395.081 215.812L390.931 212.493C384.053 221.09 371.724 225.767 353.045 225.767V231.081ZM394.885 216.031C405.073 205.843 409.934 190.776 409.934 171.338H404.62C404.62 189.957 399.967 203.433 391.127 212.274L394.885 216.031ZM409.934 171.338V154.212H404.62V171.338H409.934ZM407.277 156.869H424.403V151.555H407.277V156.869ZM421.746 154.212V322.616H427.06V154.212H421.746ZM424.403 319.959H407.277V325.273H424.403V319.959ZM409.934 322.616V311.199H404.62V322.616H409.934ZM409.934 311.199C409.934 289.896 405.094 273.032 395.047 260.975L390.964 264.377C399.946 275.154 404.62 290.638 404.62 311.199H409.934ZM395.216 261.202C386.935 248.78 372.587 242.893 353.045 242.893V248.207C371.561 248.207 383.853 253.737 390.795 264.149L395.216 261.202ZM353.045 242.893H270.271V248.207H353.045V242.893ZM267.613 245.55V459.623H272.928V245.55H267.613ZM267.613 459.623C267.613 467.644 269.621 474.147 274.1 478.627L277.858 474.87C274.726 471.738 272.928 466.824 272.928 459.623H267.613ZM274.505 478.959C280.698 483.087 287.883 485.114 295.959 485.114V479.8C288.813 479.8 282.678 478.021 277.453 474.538L274.505 478.959ZM295.959 485.114H370.171V479.8H295.959V485.114ZM370.171 485.114C399.21 485.114 423.611 477.36 443.189 461.697L439.869 457.548C421.389 472.331 398.219 479.8 370.171 479.8V485.114ZM443.211 461.679C464.642 444.145 481.049 417.969 492.573 383.397L487.531 381.716C476.221 415.647 460.279 440.848 439.846 457.566L443.211 461.679ZM489.065 385.023L503.337 390.732L505.31 385.798L491.039 380.089L489.065 385.023ZM501.766 387.544L470.369 498.862L475.483 500.304L506.881 388.986L501.766 387.544ZM472.926 496.926H181.787V502.24H472.926V496.926ZM184.444 499.583V482.457H179.13V499.583H184.444ZM181.787 485.114H198.913V479.8H181.787V485.114ZM198.913 485.114C208.634 485.114 216.201 483.198 220.772 478.627L217.014 474.87C213.974 477.91 208.221 479.8 198.913 479.8V485.114ZM220.772 478.627C225.252 474.147 227.259 467.644 227.259 459.623H221.945C221.945 466.824 220.146 471.738 217.014 474.87L220.772 478.627ZM227.259 459.623V51.4571H221.945V459.623H227.259ZM227.259 51.4571C227.259 43.436 225.252 36.9322 220.772 32.4524L217.014 36.2101C220.146 39.3418 221.945 44.2552 221.945 51.4571H227.259ZM220.772 32.4524C216.201 27.8816 208.634 25.9656 198.913 25.9656V31.2798C208.221 31.2798 213.974 33.1694 217.014 36.2101L220.772 32.4524ZM198.913 25.9656H184.641V31.2798H198.913V25.9656ZM573.512 236.987L571.114 235.843L570.574 236.975L571.104 238.11L573.512 236.987ZM673.412 451.06L671.005 452.183L671.02 452.216L671.036 452.248L673.412 451.06ZM690.538 476.748L688.659 478.627L688.964 478.932L689.35 479.125L690.538 476.748ZM721.936 482.457H724.593V479.8H721.936V482.457ZM721.936 499.583V502.24H724.593V499.583H721.936ZM599.201 499.583H596.543V502.24H599.201V499.583ZM599.201 482.457V479.8H596.543V482.457H599.201ZM627.744 479.603L629.622 481.482L629.927 481.177L630.12 480.791L627.744 479.603ZM627.744 456.768L625.328 457.874L625.347 457.916L625.367 457.957L627.744 456.768ZM550.677 288.364L553.094 287.259L550.733 282.1L548.281 287.216L550.677 288.364ZM485.028 425.371L482.632 424.223L482.594 424.302L482.561 424.384L485.028 425.371ZM476.466 448.205L478.842 449.394L478.927 449.225L478.986 449.046L476.466 448.205ZM476.466 479.603L474.587 481.482L475.03 481.925L475.625 482.123L476.466 479.603ZM502.154 482.457H504.811V479.8H502.154V482.457ZM502.154 499.583V502.24H504.811V499.583H502.154ZM393.691 499.583H391.034V502.24H393.691V499.583ZM393.691 482.457V479.8H391.034V482.457H393.691ZM447.922 453.914L450.299 455.102L450.313 455.074L450.327 455.045L447.922 453.914ZM539.26 259.821L541.664 260.953L542.19 259.835L541.675 258.712L539.26 259.821ZM442.214 48.6028L439.693 49.443L439.739 49.5805L439.799 49.7121L442.214 48.6028ZM430.797 34.3313L428.918 36.2101L429.104 36.3961L429.323 36.5421L430.797 34.3313ZM402.254 28.6227H399.596V31.2798H402.254V28.6227ZM402.254 11.4968V8.83974H399.596V11.4968H402.254ZM519.28 11.4968H521.937V8.83974H519.28V11.4968ZM519.28 28.6227V31.2798H521.937V28.6227H519.28ZM493.591 62.8743L491.071 63.7145L491.114 63.845L491.171 63.9704L493.591 62.8743ZM562.095 214.152L559.674 215.248L562.048 220.491L564.499 215.284L562.095 214.152ZM630.598 68.5829L633.002 69.7143L633.022 69.6723L633.04 69.6296L630.598 68.5829ZM636.307 40.0399L633.729 40.6843L633.754 40.7833L633.786 40.8801L636.307 40.0399ZM599.201 28.6227H596.543V31.2798H599.201V28.6227ZM599.201 11.4968V8.83974H596.543V11.4968H599.201ZM710.518 11.4968H713.176V8.83974H710.518V11.4968ZM710.518 28.6227V31.2798H713.176V28.6227H710.518ZM661.995 51.4571L659.87 49.8628L659.711 50.0745L659.597 50.3133L661.995 51.4571ZM571.104 238.11L671.005 452.183L675.82 449.936L575.92 235.863L571.104 238.11ZM671.036 452.248C676.807 463.79 682.667 472.634 688.659 478.627L692.417 474.87C686.993 469.445 681.435 461.164 675.789 449.871L671.036 452.248ZM689.35 479.125C697.286 483.093 705.302 485.114 713.373 485.114V479.8C706.22 479.8 699.013 478.015 691.727 474.372L689.35 479.125ZM713.373 485.114H721.936V479.8H713.373V485.114ZM719.279 482.457V499.583H724.593V482.457H719.279ZM721.936 496.926H599.201V502.24H721.936V496.926ZM601.858 499.583V482.457H596.543V499.583H601.858ZM599.201 485.114H610.618V479.8H599.201V485.114ZM610.618 485.114C615.441 485.114 619.411 484.874 622.472 484.364C625.368 483.882 628.029 483.075 629.622 481.482L625.865 477.724C625.555 478.034 624.41 478.654 621.598 479.122C618.95 479.564 615.309 479.8 610.618 479.8V485.114ZM630.12 480.791C632.186 476.66 633.255 472.45 633.255 468.185H627.941C627.941 471.532 627.107 474.934 625.367 478.414L630.12 480.791ZM633.255 468.185C633.255 463.921 632.186 459.711 630.12 455.58L625.367 457.957C627.107 461.437 627.941 464.839 627.941 468.185H633.255ZM630.16 455.663L553.094 287.259L548.261 289.47L625.328 457.874L630.16 455.663ZM548.281 287.216L482.632 424.223L487.425 426.519L553.074 289.512L548.281 287.216ZM482.561 424.384C478.748 433.918 475.872 441.585 473.945 447.365L478.986 449.046C480.865 443.409 483.698 435.852 487.495 426.358L482.561 424.384ZM474.089 447.017C472.172 450.852 470.708 454.018 469.717 456.495C469.222 457.733 468.83 458.835 468.559 459.785C468.299 460.694 468.1 461.63 468.1 462.477H473.414C473.414 462.372 473.453 462 473.669 461.244C473.873 460.529 474.195 459.61 474.651 458.469C475.563 456.188 476.954 453.17 478.842 449.394L474.089 447.017ZM468.1 462.477C468.1 470.498 470.107 477.002 474.587 481.482L478.344 477.724C475.213 474.592 473.414 469.679 473.414 462.477H468.1ZM475.625 482.123C481.666 484.137 488.621 485.114 496.446 485.114V479.8C489.048 479.8 482.683 478.874 477.306 477.082L475.625 482.123ZM496.446 485.114H502.154V479.8H496.446V485.114ZM499.497 482.457V499.583H504.811V482.457H499.497ZM502.154 496.926H393.691V502.24H502.154V496.926ZM396.348 499.583V482.457H391.034V499.583H396.348ZM393.691 485.114H405.108V479.8H393.691V485.114ZM405.108 485.114C415.197 485.114 424.32 482.073 432.391 476.02L429.202 471.768C422.051 477.132 414.047 479.8 405.108 479.8V485.114ZM432.391 476.02C440.293 470.093 446.288 463.124 450.299 455.102L445.546 452.726C441.945 459.927 436.523 466.278 429.202 471.768L432.391 476.02ZM450.327 455.045L541.664 260.953L536.856 258.69L445.518 452.783L450.327 455.045ZM541.675 258.712L444.628 47.4934L439.799 49.7121L536.846 260.931L541.675 258.712ZM444.735 47.7625C442.619 41.4162 438.398 36.2057 432.271 32.1204L429.323 36.5421C434.612 40.0683 438.003 44.3722 439.693 49.443L444.735 47.7625ZM432.675 32.4524C428.196 27.9726 421.692 25.9656 413.671 25.9656V31.2798C420.873 31.2798 425.786 33.0784 428.918 36.2101L432.675 32.4524ZM413.671 25.9656H402.254V31.2798H413.671V25.9656ZM404.911 28.6227V11.4968H399.596V28.6227H404.911ZM402.254 14.1539H519.28V8.83974H402.254V14.1539ZM516.623 11.4968V28.6227H521.937V11.4968H516.623ZM519.28 25.9656H510.717V31.2798H519.28V25.9656ZM510.717 25.9656C504.833 25.9656 499.909 26.6942 496.113 28.3211C492.24 29.9807 489.456 32.625 488.216 36.3453L493.258 38.0258C493.921 36.0376 495.418 34.4003 498.206 33.2056C501.07 31.9782 505.184 31.2798 510.717 31.2798V25.9656ZM488.216 36.3453C486.023 42.9256 487.235 52.2082 491.071 63.7145L496.112 62.034C492.336 50.706 491.645 42.8628 493.258 38.0258L488.216 36.3453ZM491.171 63.9704L559.674 215.248L564.515 213.056L496.012 61.7782L491.171 63.9704ZM564.499 215.284L633.002 69.7143L628.194 67.4515L559.69 213.021L564.499 215.284ZM633.04 69.6296C635.935 62.8746 637.912 56.9806 638.912 51.9782C639.904 47.0171 639.989 42.6834 638.827 39.1996L633.786 40.8801C634.527 43.105 634.612 46.3827 633.701 50.936C632.799 55.4479 630.969 60.9711 628.156 67.5362L633.04 69.6296ZM638.884 39.3954C637.762 34.9051 635.178 31.4413 631.203 29.17C627.322 26.9523 622.288 25.9656 616.326 25.9656V31.2798C621.782 31.2798 625.787 32.1959 628.566 33.784C631.251 35.3183 632.948 37.5632 633.729 40.6843L638.884 39.3954ZM616.326 25.9656H599.201V31.2798H616.326V25.9656ZM601.858 28.6227V11.4968H596.543V28.6227H601.858ZM599.201 14.1539H710.518V8.83974H599.201V14.1539ZM707.861 11.4968V28.6227H713.176V11.4968H707.861ZM710.518 25.9656H693.393V31.2798H710.518V25.9656ZM693.393 25.9656C688.788 25.9656 683.488 28.2265 677.647 32.1204L680.595 36.5421C686.171 32.8246 690.386 31.2798 693.393 31.2798V25.9656ZM677.647 32.1204C671.612 36.1441 665.694 42.0966 659.87 49.8628L664.121 53.0513C669.714 45.5946 675.213 40.1299 680.595 36.5421L677.647 32.1204ZM659.597 50.3133L571.114 235.843L575.91 238.131L664.394 52.6009L659.597 50.3133ZM816.813 316.907L819.404 316.318L818.934 314.25H816.813V316.907ZM688.369 316.907V314.25H686.268L685.783 316.295L688.369 316.907ZM662.68 425.371L660.095 424.758L660.084 424.804L660.075 424.85L662.68 425.371ZM662.68 471.04L660.103 471.684L660.173 471.967L660.304 472.228L662.68 471.04ZM696.932 482.457H699.589V479.8H696.932V482.457ZM696.932 499.583V502.24H699.589V499.583H696.932ZM591.323 499.583H588.666V502.24H591.323V499.583ZM591.323 482.457V479.8H588.666V482.457H591.323ZM619.866 476.748L621.34 478.959L621.559 478.813L621.745 478.627L619.866 476.748ZM631.283 451.06L628.708 450.403L628.68 450.512L628.662 450.623L631.283 451.06ZM742.601 14.3511L741.761 11.8304L740.384 12.2891L740.026 13.6948L742.601 14.3511ZM785.415 0.0796204L787.999 -0.541718L787.322 -3.35669L784.575 -2.44113L785.415 0.0796204ZM893.879 451.06L891.295 451.681L891.322 451.792L891.358 451.9L893.879 451.06ZM908.15 476.748L906.272 478.627L906.458 478.813L906.677 478.959L908.15 476.748ZM936.693 482.457H939.351V479.8H936.693V482.457ZM936.693 499.583V502.24H939.351V499.583H936.693ZM813.958 499.583H811.301V502.24H813.958V499.583ZM813.958 482.457V479.8H811.301V482.457H813.958ZM845.356 476.748L847.732 477.937L847.817 477.768L847.876 477.589L845.356 476.748ZM845.356 442.497L842.765 443.086L842.794 443.213L842.835 443.337L845.356 442.497ZM756.872 62.8743L759.455 62.2518L758.965 60.2172H756.872V62.8743ZM754.018 62.8743V60.2172H751.949L751.442 62.2225L754.018 62.8743ZM694.078 299.782L691.502 299.13L690.664 302.439H694.078V299.782ZM813.958 299.782V302.439H817.332L816.542 299.159L813.958 299.782ZM816.813 314.25H688.369V319.564H816.813V314.25ZM685.783 316.295L660.095 424.758L665.266 425.983L690.955 317.52L685.783 316.295ZM660.075 424.85C658.158 434.435 657.169 442.242 657.169 448.205H662.483C662.483 442.751 663.397 435.336 665.286 425.892L660.075 424.85ZM657.169 448.205C657.169 456.041 658.149 463.868 660.103 471.684L665.258 470.395C663.406 462.988 662.483 455.593 662.483 448.205H657.169ZM660.304 472.228C664.783 481.187 674.666 485.114 688.369 485.114V479.8C675.432 479.8 668.189 476.115 665.057 469.851L660.304 472.228ZM688.369 485.114H696.932V479.8H688.369V485.114ZM694.275 482.457V499.583H699.589V482.457H694.275ZM696.932 496.926H591.323V502.24H696.932V496.926ZM593.98 499.583V482.457H588.666V499.583H593.98ZM591.323 485.114H599.886V479.8H591.323V485.114ZM599.886 485.114C607.962 485.114 615.147 483.087 621.34 478.959L618.392 474.538C613.167 478.021 607.032 479.8 599.886 479.8V485.114ZM621.745 478.627C627.981 472.39 631.948 463.232 633.904 451.496L628.662 450.623C626.812 461.722 623.167 469.689 617.987 474.87L621.745 478.627ZM633.858 451.716L745.176 15.0074L740.026 13.6948L628.708 450.403L633.858 451.716ZM743.441 16.8719L786.256 2.60036L784.575 -2.44113L741.761 11.8304L743.441 16.8719ZM782.832 0.700943L891.295 451.681L896.462 450.438L787.999 -0.541718L782.832 0.700943ZM891.358 451.9C895.236 463.532 900.163 472.519 906.272 478.627L910.029 474.87C904.72 469.56 900.134 461.422 896.4 450.219L891.358 451.9ZM906.677 478.959C912.869 483.087 920.054 485.114 928.13 485.114V479.8C920.984 479.8 914.849 478.021 909.624 474.538L906.677 478.959ZM928.13 485.114H936.693V479.8H928.13V485.114ZM934.036 482.457V499.583H939.351V482.457H934.036ZM936.693 496.926H813.958V502.24H936.693V496.926ZM816.615 499.583V482.457H811.301V499.583H816.615ZM813.958 485.114H825.376V479.8H813.958V485.114ZM825.376 485.114C831.193 485.114 835.993 484.633 839.663 483.585C843.274 482.553 846.288 480.824 847.732 477.937L842.979 475.56C842.52 476.478 841.253 477.604 838.204 478.475C835.214 479.329 830.975 479.8 825.376 479.8V485.114ZM847.876 477.589C849.823 471.747 850.867 466.684 850.867 462.477H845.553C845.553 465.881 844.694 470.332 842.835 475.908L847.876 477.589ZM850.867 462.477C850.867 454.652 849.89 447.697 847.876 441.656L842.835 443.337C844.627 448.714 845.553 455.079 845.553 462.477H850.867ZM847.947 441.908L819.404 316.318L814.222 317.496L842.765 443.086L847.947 441.908ZM756.872 60.2172H754.018V65.5314H756.872V60.2172ZM751.442 62.2225L691.502 299.13L696.654 300.433L756.594 63.526L751.442 62.2225ZM694.078 302.439H813.958V297.124H694.078V302.439ZM816.542 299.159L759.455 62.2518L754.289 63.4967L811.375 300.404L816.542 299.159ZM1085.8 385.411L1083.44 386.635L1084.19 388.068H1085.8V385.411ZM1091.51 385.411V388.068H1094.17V385.411H1091.51ZM1042.99 28.6227H1040.33V31.2798H1042.99V28.6227ZM1042.99 11.4968V8.83974H1040.33V11.4968H1042.99ZM1157.16 11.4968H1159.82V8.83974H1157.16V11.4968ZM1157.16 28.6227V31.2798H1159.82V28.6227H1157.16ZM1114.35 34.3313L1112.87 32.1204L1112.65 32.2664L1112.47 32.4524L1114.35 34.3313ZM1108.64 499.583V502.24H1111.29V499.583H1108.64ZM1091.51 499.583L1089.14 500.79L1089.88 502.24H1091.51V499.583ZM874.584 74.2915L876.951 73.0842L876.211 71.6344H874.584V74.2915ZM868.875 74.2915V71.6344H866.218V74.2915H868.875ZM874.584 476.748L872.705 478.627L872.891 478.813L873.11 478.959L874.584 476.748ZM917.398 482.457H920.055V479.8H917.398V482.457ZM917.398 499.583V502.24H920.055V499.583H917.398ZM803.226 499.583H800.569V502.24H803.226V499.583ZM803.226 482.457V479.8H800.569V482.457H803.226ZM808.935 28.6227H806.278V31.2798H808.935V28.6227ZM808.935 11.4968V8.83974H806.278V11.4968H808.935ZM891.71 11.4968L894.068 10.2727L893.324 8.83974H891.71V11.4968ZM1085.8 388.068H1091.51V382.754H1085.8V388.068ZM1094.17 385.411V51.4571H1088.85V385.411H1094.17ZM1094.17 51.4571C1094.17 43.436 1092.16 36.9322 1087.68 32.4524L1083.92 36.2101C1087.06 39.3418 1088.85 44.2552 1088.85 51.4571H1094.17ZM1087.68 32.4524C1083.11 27.8816 1075.54 25.9656 1065.82 25.9656V31.2798C1075.13 31.2798 1080.88 33.1694 1083.92 36.2101L1087.68 32.4524ZM1065.82 25.9656H1042.99V31.2798H1065.82V25.9656ZM1045.64 28.6227V11.4968H1040.33V28.6227H1045.64ZM1042.99 14.1539H1157.16V8.83974H1042.99V14.1539ZM1154.5 11.4968V28.6227H1159.82V11.4968H1154.5ZM1157.16 25.9656H1134.33V31.2798H1157.16V25.9656ZM1134.33 25.9656C1126.25 25.9656 1119.06 27.9923 1112.87 32.1204L1115.82 36.5421C1121.04 33.0587 1127.18 31.2798 1134.33 31.2798V25.9656ZM1112.47 32.4524C1107.99 36.9322 1105.98 43.436 1105.98 51.4571H1111.29C1111.29 44.2552 1113.09 39.3418 1116.22 36.2101L1112.47 32.4524ZM1105.98 51.4571V499.583H1111.29V51.4571H1105.98ZM1108.64 496.926H1091.51V502.24H1108.64V496.926ZM1093.88 498.375L876.951 73.0842L872.217 75.4988L1089.14 500.79L1093.88 498.375ZM874.584 71.6344H868.875V76.9486H874.584V71.6344ZM866.218 74.2915V459.623H871.532V74.2915H866.218ZM866.218 459.623C866.218 467.644 868.225 474.147 872.705 478.627L876.463 474.87C873.331 471.738 871.532 466.824 871.532 459.623H866.218ZM873.11 478.959C879.302 483.087 886.487 485.114 894.564 485.114V479.8C887.417 479.8 881.283 478.021 876.058 474.538L873.11 478.959ZM894.564 485.114H917.398V479.8H894.564V485.114ZM914.741 482.457V499.583H920.055V482.457H914.741ZM917.398 496.926H803.226V502.24H917.398V496.926ZM805.883 499.583V482.457H800.569V499.583H805.883ZM803.226 485.114H826.061V479.8H803.226V485.114ZM826.061 485.114C835.781 485.114 843.349 483.198 847.92 478.627L844.162 474.87C841.121 477.91 835.369 479.8 826.061 479.8V485.114ZM847.92 478.627C852.399 474.147 854.406 467.644 854.406 459.623H849.092C849.092 466.824 847.294 471.738 844.162 474.87L847.92 478.627ZM854.406 459.623V51.4571H849.092V459.623H854.406ZM854.406 51.4571C854.406 43.436 852.399 36.9322 847.92 32.4524L844.162 36.2101C847.294 39.3418 849.092 44.2552 849.092 51.4571H854.406ZM847.92 32.4524C843.349 27.8816 835.781 25.9656 826.061 25.9656V31.2798C835.369 31.2798 841.121 33.1694 844.162 36.2101L847.92 32.4524ZM826.061 25.9656H808.935V31.2798H826.061V25.9656ZM811.592 28.6227V11.4968H806.278V28.6227H811.592ZM808.935 14.1539H891.71V8.83974H808.935V14.1539ZM889.351 12.721L1083.44 386.635L1088.16 384.186L894.068 10.2727L889.351 12.721ZM1257.75 80.0001L1255.59 81.5558L1255.61 81.5853L1255.63 81.6142L1257.75 80.0001ZM1123.59 34.3313L1122.41 31.9547L1122.26 32.0287L1122.12 32.1204L1123.59 34.3313ZM1252.04 436.788L1253.98 438.605L1254 438.576L1254.03 438.546L1252.04 436.788ZM1026.55 28.6227H1023.89V31.2798H1026.55V28.6227ZM1026.55 11.4968V8.83974H1023.89V11.4968H1026.55ZM1294.85 68.5829L1292.88 70.3604L1292.9 70.387L1292.93 70.413L1294.85 68.5829ZM1297.71 439.642L1299.72 441.372L1299.74 441.349L1299.76 441.325L1297.71 439.642ZM1023.69 499.583H1021.04V502.24H1023.69V499.583ZM1023.69 482.457V479.8H1021.04V482.457H1023.69ZM1297.51 251.258C1297.51 169.344 1285.16 111.477 1259.86 78.3861L1255.63 81.6142C1279.8 113.22 1292.19 169.526 1292.19 251.258H1297.51ZM1259.9 78.4444C1234.64 43.4723 1199.57 25.9656 1154.99 25.9656V31.2798C1197.94 31.2798 1231.37 48.0247 1255.59 81.5558L1259.9 78.4444ZM1154.99 25.9656C1141.47 25.9656 1130.54 27.8892 1122.41 31.9547L1124.78 36.7078C1131.87 33.1618 1141.87 31.2798 1154.99 31.2798V25.9656ZM1122.12 32.1204C1115.58 36.4792 1112.37 43.0716 1112.37 51.4571H1117.69C1117.69 44.6196 1120.19 39.7948 1125.07 36.5421L1122.12 32.1204ZM1112.37 51.4571V459.623H1117.69V51.4571H1112.37ZM1112.37 459.623C1112.37 468.008 1115.58 474.6 1122.12 478.959L1125.07 474.538C1120.19 471.285 1117.69 466.46 1117.69 459.623H1112.37ZM1122.12 478.959C1128.4 483.148 1136.58 485.114 1146.43 485.114V479.8C1137.24 479.8 1130.2 477.96 1125.07 474.538L1122.12 478.959ZM1146.43 485.114C1189.02 485.114 1224.93 469.589 1253.98 438.605L1250.1 434.971C1222.06 464.879 1187.56 479.8 1146.43 479.8V485.114ZM1254.03 438.546C1268.7 421.921 1279.55 397.905 1286.74 366.742C1293.93 335.559 1297.51 297.049 1297.51 251.258H1292.19C1292.19 296.806 1288.63 334.886 1281.56 365.547C1274.48 396.226 1263.92 419.307 1250.04 435.03L1254.03 438.546ZM1072.02 51.4571C1072.02 43.436 1070.01 36.9322 1065.53 32.4524L1061.77 36.2101C1064.91 39.3418 1066.7 44.2552 1066.7 51.4571H1072.02ZM1065.53 32.4524C1060.96 27.8816 1053.39 25.9656 1043.67 25.9656V31.2798C1052.98 31.2798 1058.73 33.1694 1061.77 36.2101L1065.53 32.4524ZM1043.67 25.9656H1026.55V31.2798H1043.67V25.9656ZM1029.2 28.6227V11.4968H1023.89V28.6227H1029.2ZM1026.55 14.1539H1154.99V8.83974H1026.55V14.1539ZM1154.99 14.1539C1213.35 14.1539 1259.21 32.9504 1292.88 70.3604L1296.83 66.8054C1261.99 28.1006 1214.61 8.83974 1154.99 8.83974V14.1539ZM1292.93 70.413C1328.42 107.772 1346.43 165.963 1346.43 245.55H1351.74C1351.74 165.295 1333.6 105.508 1296.78 66.7528L1292.93 70.413ZM1346.43 245.55C1346.43 332.822 1329.34 396.787 1295.65 437.96L1299.76 441.325C1334.58 398.771 1351.74 333.342 1351.74 245.55H1346.43ZM1295.69 437.913C1262.07 477.135 1212.47 496.926 1146.43 496.926V502.24C1213.58 502.24 1264.84 482.071 1299.72 441.372L1295.69 437.913ZM1146.43 496.926H1023.69V502.24H1146.43V496.926ZM1026.35 499.583V482.457H1021.04V499.583H1026.35ZM1023.69 485.114H1043.67V479.8H1023.69V485.114ZM1043.67 485.114C1053.39 485.114 1060.96 483.198 1065.53 478.627L1061.77 474.87C1058.73 477.91 1052.98 479.8 1043.67 479.8V485.114ZM1065.53 478.627C1070.01 474.147 1072.02 467.644 1072.02 459.623H1066.7C1066.7 466.824 1064.91 471.738 1061.77 474.87L1065.53 478.627ZM1072.02 459.623V51.4571H1066.7V459.623H1072.02ZM1441.11 251.258L1440.73 248.628L1437.37 249.108L1438.64 252.257L1441.11 251.258ZM1526.74 462.477L1524.27 463.475L1524.31 463.572L1524.36 463.665L1526.74 462.477ZM1538.15 479.603L1536.27 481.482L1536.72 481.925L1537.31 482.123L1538.15 479.603ZM1572.4 482.457H1575.06V479.8H1572.4V482.457ZM1572.4 499.583V502.24H1575.06V499.583H1572.4ZM1492.48 499.583L1490 500.535L1490.66 502.24H1492.48V499.583ZM1398.29 254.113L1400.77 253.161L1400.12 251.456H1398.29V254.113ZM1332.64 254.113V251.456H1329.99V254.113H1332.64ZM1338.35 476.748L1336.47 478.627L1336.66 478.813L1336.88 478.959L1338.35 476.748ZM1375.46 482.457H1378.11V479.8H1375.46V482.457ZM1375.46 499.583V502.24H1378.11V499.583H1375.46ZM1244.16 499.583H1241.5V502.24H1244.16V499.583ZM1244.16 482.457V479.8H1241.5V482.457H1244.16ZM1244.16 28.6227H1241.5V31.2798H1244.16V28.6227ZM1244.16 11.4968V8.83974H1241.5V11.4968H1244.16ZM1506.76 40.0399L1505.05 42.0811L1505.09 42.1143L1505.13 42.146L1506.76 40.0399ZM1332.64 236.987H1329.99V239.644H1332.64V236.987ZM1469.65 57.1657L1467.67 58.9432L1467.72 58.9951L1467.77 59.0445L1469.65 57.1657ZM1338.35 34.3313L1336.88 32.1204L1336.66 32.2664L1336.47 32.4524L1338.35 34.3313ZM1541.2 125.669C1541.2 163.232 1530.89 191.972 1510.58 212.274L1514.34 216.031C1535.9 194.47 1546.52 164.22 1546.52 125.669H1541.2ZM1510.58 212.274C1490.02 232.841 1466.74 244.912 1440.73 248.628L1441.48 253.889C1468.75 249.994 1493.05 237.326 1514.34 216.031L1510.58 212.274ZM1438.64 252.257L1524.27 463.475L1529.2 461.479L1443.57 250.26L1438.64 252.257ZM1524.36 463.665C1528.23 471.402 1532.18 477.392 1536.27 481.482L1540.03 477.724C1536.51 474.202 1532.85 468.775 1529.11 461.289L1524.36 463.665ZM1537.31 482.123C1543.28 484.112 1549.27 485.114 1555.28 485.114V479.8C1549.87 479.8 1544.44 478.899 1538.99 477.082L1537.31 482.123ZM1555.28 485.114H1572.4V479.8H1555.28V485.114ZM1569.75 482.457V499.583H1575.06V482.457H1569.75ZM1572.4 496.926H1492.48V502.24H1572.4V496.926ZM1494.96 498.631L1400.77 253.161L1395.81 255.065L1490 500.535L1494.96 498.631ZM1398.29 251.456H1332.64V256.77H1398.29V251.456ZM1329.99 254.113V459.623H1335.3V254.113H1329.99ZM1329.99 459.623C1329.99 467.644 1331.99 474.147 1336.47 478.627L1340.23 474.87C1337.1 471.738 1335.3 466.824 1335.3 459.623H1329.99ZM1336.88 478.959C1343.07 483.087 1350.25 485.114 1358.33 485.114V479.8C1351.18 479.8 1345.05 478.021 1339.82 474.538L1336.88 478.959ZM1358.33 485.114H1375.46V479.8H1358.33V485.114ZM1372.8 482.457V499.583H1378.11V482.457H1372.8ZM1375.46 496.926H1244.16V502.24H1375.46V496.926ZM1246.82 499.583V482.457H1241.5V499.583H1246.82ZM1244.16 485.114H1261.28V479.8H1244.16V485.114ZM1261.28 485.114C1271.01 485.114 1278.57 483.198 1283.14 478.627L1279.39 474.87C1276.35 477.91 1270.59 479.8 1261.28 479.8V485.114ZM1283.14 478.627C1287.62 474.147 1289.63 467.644 1289.63 459.623H1284.32C1284.32 466.824 1282.52 471.738 1279.39 474.87L1283.14 478.627ZM1289.63 459.623V51.4571H1284.32V459.623H1289.63ZM1289.63 51.4571C1289.63 43.436 1287.62 36.9322 1283.14 32.4524L1279.39 36.2101C1282.52 39.3418 1284.32 44.2552 1284.32 51.4571H1289.63ZM1283.14 32.4524C1278.57 27.8816 1271.01 25.9656 1261.28 25.9656V31.2798C1270.59 31.2798 1276.35 33.1694 1279.39 36.2101L1283.14 32.4524ZM1261.28 25.9656H1244.16V31.2798H1261.28V25.9656ZM1246.82 28.6227V11.4968H1241.5V28.6227H1246.82ZM1244.16 14.1539H1406.85V8.83974H1244.16V14.1539ZM1406.85 14.1539C1450.28 14.1539 1482.88 23.6009 1505.05 42.0811L1508.46 37.9986C1484.96 18.4214 1450.96 8.83974 1406.85 8.83974V14.1539ZM1505.13 42.146C1529.07 60.5604 1541.2 88.235 1541.2 125.669H1546.52C1546.52 86.9881 1533.91 57.5768 1508.38 37.9338L1505.13 42.146ZM1332.64 239.644H1395.44V234.33H1332.64V239.644ZM1395.44 239.644C1424.56 239.644 1449 230.89 1468.57 213.273L1465.02 209.323C1446.53 225.958 1423.41 234.33 1395.44 234.33V239.644ZM1468.57 213.273C1488.36 195.463 1497.99 167.966 1497.99 131.378H1492.68C1492.68 167.098 1483.29 192.881 1465.02 209.323L1468.57 213.273ZM1497.99 131.378C1497.99 98.5683 1489.3 73.0605 1471.53 55.2868L1467.77 59.0445C1484.25 75.5225 1492.68 99.4893 1492.68 131.378H1497.99ZM1471.62 55.3882C1453.81 35.5995 1426.32 25.9656 1389.73 25.9656V31.2798C1425.45 31.2798 1451.23 40.6745 1467.67 58.9432L1471.62 55.3882ZM1389.73 25.9656H1358.33V31.2798H1389.73V25.9656ZM1358.33 25.9656C1350.25 25.9656 1343.07 27.9923 1336.88 32.1204L1339.82 36.5421C1345.05 33.0587 1351.18 31.2798 1358.33 31.2798V25.9656ZM1336.47 32.4524C1331.99 36.9322 1329.99 43.436 1329.99 51.4571H1335.3C1335.3 44.2552 1337.1 39.3418 1340.23 36.2101L1336.47 32.4524ZM1329.99 51.4571V236.987H1335.3V51.4571H1329.99ZM1501.73 28.6227H1499.07V31.2798H1501.73V28.6227ZM1501.73 11.4968V8.83974H1499.07V11.4968H1501.73ZM1730.08 11.4968H1732.73V8.83974H1730.08V11.4968ZM1730.08 28.6227V31.2798H1732.73V28.6227H1730.08ZM1644.45 34.3313L1642.97 32.1204L1642.75 32.2664L1642.57 32.4524L1644.45 34.3313ZM1644.45 476.748L1642.57 478.627L1642.75 478.813L1642.97 478.959L1644.45 476.748ZM1730.08 482.457H1732.73V479.8H1730.08V482.457ZM1730.08 499.583V502.24H1732.73V499.583H1730.08ZM1501.73 499.583H1499.07V502.24H1501.73V499.583ZM1501.73 482.457V479.8H1499.07V482.457H1501.73ZM1504.39 28.6227V11.4968H1499.07V28.6227H1504.39ZM1501.73 14.1539H1730.08V8.83974H1501.73V14.1539ZM1727.42 11.4968V28.6227H1732.73V11.4968H1727.42ZM1730.08 25.9656H1664.43V31.2798H1730.08V25.9656ZM1664.43 25.9656C1656.35 25.9656 1649.16 27.9923 1642.97 32.1204L1645.92 36.5421C1651.15 33.0587 1657.28 31.2798 1664.43 31.2798V25.9656ZM1642.57 32.4524C1638.09 36.9322 1636.08 43.436 1636.08 51.4571H1641.4C1641.4 44.2552 1643.19 39.3418 1646.33 36.2101L1642.57 32.4524ZM1636.08 51.4571V459.623H1641.4V51.4571H1636.08ZM1636.08 459.623C1636.08 467.644 1638.09 474.147 1642.57 478.627L1646.33 474.87C1643.19 471.738 1641.4 466.824 1641.4 459.623H1636.08ZM1642.97 478.959C1649.16 483.087 1656.35 485.114 1664.43 485.114V479.8C1657.28 479.8 1651.15 478.021 1645.92 474.538L1642.97 478.959ZM1664.43 485.114H1730.08V479.8H1664.43V485.114ZM1727.42 482.457V499.583H1732.73V482.457H1727.42ZM1730.08 496.926H1501.73V502.24H1730.08V496.926ZM1504.39 499.583V482.457H1499.07V499.583H1504.39ZM1501.73 485.114H1567.38V479.8H1501.73V485.114ZM1567.38 485.114C1577.1 485.114 1584.67 483.198 1589.24 478.627L1585.48 474.87C1582.44 477.91 1576.69 479.8 1567.38 479.8V485.114ZM1589.24 478.627C1593.72 474.147 1595.73 467.644 1595.73 459.623H1590.41C1590.41 466.824 1588.61 471.738 1585.48 474.87L1589.24 478.627ZM1595.73 459.623V51.4571H1590.41V459.623H1595.73ZM1595.73 51.4571C1595.73 43.436 1593.72 36.9322 1589.24 32.4524L1585.48 36.2101C1588.61 39.3418 1590.41 44.2552 1590.41 51.4571H1595.73ZM1589.24 32.4524C1584.67 27.8816 1577.1 25.9656 1567.38 25.9656V31.2798C1576.69 31.2798 1582.44 33.1694 1585.48 36.2101L1589.24 32.4524ZM1567.38 25.9656H1501.73V31.2798H1567.38V25.9656ZM1876.33 316.907L1878.92 316.318L1878.45 314.25H1876.33V316.907ZM1747.89 316.907V314.25H1745.79L1745.3 316.295L1747.89 316.907ZM1722.2 425.371L1719.61 424.758L1719.6 424.804L1719.59 424.85L1722.2 425.371ZM1722.2 471.04L1719.62 471.684L1719.69 471.967L1719.82 472.228L1722.2 471.04ZM1756.45 482.457H1759.11V479.8H1756.45V482.457ZM1756.45 499.583V502.24H1759.11V499.583H1756.45ZM1650.84 499.583H1648.18V502.24H1650.84V499.583ZM1650.84 482.457V479.8H1648.18V482.457H1650.84ZM1679.38 476.748L1680.86 478.959L1681.08 478.813L1681.26 478.627L1679.38 476.748ZM1690.8 451.06L1688.23 450.403L1688.2 450.512L1688.18 450.623L1690.8 451.06ZM1802.12 14.3511L1801.28 11.8304L1799.9 12.2891L1799.54 13.6948L1802.12 14.3511ZM1844.93 0.0796204L1847.52 -0.541718L1846.84 -3.35669L1844.09 -2.44113L1844.93 0.0796204ZM1953.4 451.06L1950.81 451.681L1950.84 451.792L1950.88 451.9L1953.4 451.06ZM1967.67 476.748L1965.79 478.627L1965.98 478.813L1966.19 478.959L1967.67 476.748ZM1996.21 482.457H1998.87V479.8H1996.21V482.457ZM1996.21 499.583V502.24H1998.87V499.583H1996.21ZM1873.48 499.583H1870.82V502.24H1873.48V499.583ZM1873.48 482.457V479.8H1870.82V482.457H1873.48ZM1904.87 476.748L1907.25 477.937L1907.33 477.768L1907.39 477.589L1904.87 476.748ZM1904.87 442.497L1902.28 443.086L1902.31 443.213L1902.35 443.337L1904.87 442.497ZM1816.39 62.8743L1818.97 62.2518L1818.48 60.2172H1816.39V62.8743ZM1813.54 62.8743V60.2172H1811.47L1810.96 62.2225L1813.54 62.8743ZM1753.6 299.782L1751.02 299.13L1750.18 302.439H1753.6V299.782ZM1873.48 299.782V302.439H1876.85L1876.06 299.159L1873.48 299.782ZM1876.33 314.25H1747.89V319.564H1876.33V314.25ZM1745.3 316.295L1719.61 424.758L1724.78 425.983L1750.47 317.52L1745.3 316.295ZM1719.59 424.85C1717.68 434.435 1716.69 442.242 1716.69 448.205H1722C1722 442.751 1722.91 435.336 1724.8 425.892L1719.59 424.85ZM1716.69 448.205C1716.69 456.041 1717.67 463.868 1719.62 471.684L1724.78 470.395C1722.92 462.988 1722 455.593 1722 448.205H1716.69ZM1719.82 472.228C1724.3 481.187 1734.18 485.114 1747.89 485.114V479.8C1734.95 479.8 1727.71 476.115 1724.57 469.851L1719.82 472.228ZM1747.89 485.114H1756.45V479.8H1747.89V485.114ZM1753.79 482.457V499.583H1759.11V482.457H1753.79ZM1756.45 496.926H1650.84V502.24H1756.45V496.926ZM1653.5 499.583V482.457H1648.18V499.583H1653.5ZM1650.84 485.114H1659.4V479.8H1650.84V485.114ZM1659.4 485.114C1667.48 485.114 1674.67 483.087 1680.86 478.959L1677.91 474.538C1672.68 478.021 1666.55 479.8 1659.4 479.8V485.114ZM1681.26 478.627C1687.5 472.39 1691.47 463.232 1693.42 451.496L1688.18 450.623C1686.33 461.722 1682.68 469.689 1677.5 474.87L1681.26 478.627ZM1693.38 451.716L1804.69 15.0074L1799.54 13.6948L1688.23 450.403L1693.38 451.716ZM1802.96 16.8719L1845.77 2.60036L1844.09 -2.44113L1801.28 11.8304L1802.96 16.8719ZM1842.35 0.700943L1950.81 451.681L1955.98 450.438L1847.52 -0.541718L1842.35 0.700943ZM1950.88 451.9C1954.75 463.532 1959.68 472.519 1965.79 478.627L1969.55 474.87C1964.24 469.56 1959.65 461.422 1955.92 450.219L1950.88 451.9ZM1966.19 478.959C1972.39 483.087 1979.57 485.114 1987.65 485.114V479.8C1980.5 479.8 1974.37 478.021 1969.14 474.538L1966.19 478.959ZM1987.65 485.114H1996.21V479.8H1987.65V485.114ZM1993.55 482.457V499.583H1998.87V482.457H1993.55ZM1996.21 496.926H1873.48V502.24H1996.21V496.926ZM1876.13 499.583V482.457H1870.82V499.583H1876.13ZM1873.48 485.114H1884.89V479.8H1873.48V485.114ZM1884.89 485.114C1890.71 485.114 1895.51 484.633 1899.18 483.585C1902.79 482.553 1905.81 480.824 1907.25 477.937L1902.5 475.56C1902.04 476.478 1900.77 477.604 1897.72 478.475C1894.73 479.329 1890.49 479.8 1884.89 479.8V485.114ZM1907.39 477.589C1909.34 471.747 1910.38 466.684 1910.38 462.477H1905.07C1905.07 465.881 1904.21 470.332 1902.35 475.908L1907.39 477.589ZM1910.38 462.477C1910.38 454.652 1909.41 447.697 1907.39 441.656L1902.35 443.337C1904.15 448.714 1905.07 455.079 1905.07 462.477H1910.38ZM1907.46 441.908L1878.92 316.318L1873.74 317.496L1902.28 443.086L1907.46 441.908ZM1816.39 60.2172H1813.54V65.5314H1816.39V60.2172ZM1810.96 62.2225L1751.02 299.13L1756.17 300.433L1816.11 63.526L1810.96 62.2225ZM1753.6 302.439H1873.48V297.124H1753.6V302.439ZM1876.06 299.159L1818.97 62.2518L1813.81 63.4967L1870.89 300.404L1876.06 299.159Z" fill="#9A3412" fill-opacity="0.4" mask="url(#path-1-outside-1_5_137)"/>
</svg>
