<svg width="304" height="303" viewBox="0 0 304 303" fill="none" xmlns="http://www.w3.org/2000/svg">
<path d="M170.562 178.008H133.442C130.879 178.008 128.802 175.931 128.802 173.368V133.928C128.802 131.365 130.879 129.288 133.442 129.288H170.562C173.124 129.288 175.202 131.365 175.202 133.928V173.368C175.202 175.931 173.124 178.008 170.562 178.008Z" fill="#9A3412"/>
<path fill-rule="evenodd" clip-rule="evenodd" d="M303.752 124.037L202.408 138.015C200.112 138.332 198.402 140.294 198.402 142.612V164.741C198.402 167.034 200.077 168.983 202.343 169.328L303.907 184.799C292.941 240.658 251.932 285.746 198.401 302.542V194.248C198.401 189.123 194.247 184.968 189.121 184.968H186.802V121.168H117.202V184.968H115.889C110.824 184.968 106.694 189.03 106.61 194.094L104.822 302.295C51.5147 285.257 10.767 240.119 0 184.303L102.332 169.309C104.61 168.975 106.299 167.021 106.299 164.718V142.633C106.299 140.306 104.576 138.339 102.269 138.033L0.161785 124.487C14.2569 53.5062 76.8807 0 152.002 0C226.964 0 289.482 53.2803 303.752 124.037ZM152.001 71.2878L198.401 104.928V121.168H105.601V104.928L152.001 71.2878Z" fill="#9A3412"/>
<path fill-rule="evenodd" clip-rule="evenodd" d="M303.752 124.037L202.408 138.015C200.112 138.332 198.402 140.294 198.402 142.612V164.741C198.402 167.034 200.077 168.983 202.343 169.328L303.907 184.799C292.941 240.658 251.932 285.746 198.401 302.542V194.248C198.401 189.123 194.247 184.968 189.121 184.968H186.802V121.168H117.202V184.968H115.889C110.824 184.968 106.694 189.03 106.61 194.094L104.822 302.295C51.5147 285.257 10.767 240.119 0 184.303L102.332 169.309C104.61 168.975 106.299 167.021 106.299 164.718V142.633C106.299 140.306 104.576 138.339 102.269 138.033L0.161785 124.487C14.2569 53.5062 76.8807 0 152.002 0C226.964 0 289.482 53.2803 303.752 124.037ZM152.001 71.2878L198.401 104.928V121.168H105.601V104.928L152.001 71.2878Z" fill="#9A3412"/>
</svg>
